<?xml version="1.0" encoding="UTF-8" standalone="no"?>
<!DOCTYPE svg PUBLIC "-//W3C//DTD SVG 1.1//EN"
 "http://www.w3.org/Graphics/SVG/1.1/DTD/svg11.dtd">
<!-- Generated by graphviz version 2.42.4 (0)
 -->
<!-- Pages: 1 -->
<svg width="792pt" height="891pt"
 viewBox="0 0 712.00 801.00" xmlns="http://www.w3.org/2000/svg" xmlns:xlink="http://www.w3.org/1999/xlink">
<g id="graph0" class="graph" transform="scale(1 1) rotate(0) translate(4 797)">
<polygon fill="white" stroke="transparent" points="-4,4 -4,-797 708.27,-797 708.27,4 -4,4"/>
<!-- root -->
<g id="node1" class="node">
<title>root</title>
<ellipse fill="thistle" stroke="black" stroke-width="2" cx="162.63" cy="-423" rx="162.77" ry="35.21"/>
<text text-anchor="middle" x="162.63" y="-433.6" font-family="Times,serif" font-size="13.00">Digital&#45;ecosystem specific skills</text>
<text text-anchor="middle" x="162.63" y="-419.6" font-family="Times,serif" font-size="13.00">(BISOS / Blee / ByStar)</text>
<text text-anchor="middle" x="162.63" y="-405.6" font-family="Times,serif" font-size="13.00">(Claude loads)</text>
</g>
<!-- ecoAuthorship -->
<g id="node2" class="node">
<title>ecoAuthorship</title>
<polygon fill="none" stroke="#666666" stroke-dasharray="5,2" points="483.27,-748 368.27,-748 368.27,-712 483.27,-712 483.27,-748"/>
<text text-anchor="middle" x="425.77" y="-727.2" font-family="Times,serif" font-size="11.00">authorship model</text>
</g>
<!-- root&#45;&gt;ecoAuthorship -->
<g id="edge1" class="edge">
<title>root&#45;&gt;ecoAuthorship</title>
<path fill="none" stroke="#666666" d="M193.34,-457.92C248.95,-523.3 366.97,-662.05 409.28,-711.79"/>
</g>
<!-- ecoPycs -->
<g id="node5" class="node">
<title>ecoPycs</title>
<polygon fill="none" stroke="#666666" stroke-dasharray="5,2" points="480.77,-649 370.77,-649 370.77,-613 480.77,-613 480.77,-649"/>
<text text-anchor="middle" x="425.77" y="-628.2" font-family="Times,serif" font-size="11.00">PyCS commands</text>
</g>
<!-- root&#45;&gt;ecoPycs -->
<g id="edge4" class="edge">
<title>root&#45;&gt;ecoPycs</title>
<path fill="none" stroke="#666666" d="M206.46,-457.11C262.46,-501.72 358.53,-578.24 402.1,-612.94"/>
</g>
<!-- ecoSeeded -->
<g id="node8" class="node">
<title>ecoSeeded</title>
<polygon fill="none" stroke="#666666" stroke-dasharray="5,2" points="463.77,-441 387.77,-441 387.77,-405 463.77,-405 463.77,-441"/>
<text text-anchor="middle" x="425.77" y="-420.2" font-family="Times,serif" font-size="11.00">seeded CS</text>
</g>
<!-- root&#45;&gt;ecoSeeded -->
<g id="edge7" class="edge">
<title>root&#45;&gt;ecoSeeded</title>
<path fill="none" stroke="#666666" d="M325.3,-423C348.46,-423 370.24,-423 387.48,-423"/>
</g>
<!-- ecoPackaging -->
<g id="node16" class="node">
<title>ecoPackaging</title>
<polygon fill="none" stroke="#666666" stroke-dasharray="5,2" points="489.27,-194 362.27,-194 362.27,-158 489.27,-158 489.27,-194"/>
<text text-anchor="middle" x="425.77" y="-173.2" font-family="Times,serif" font-size="11.00">packaging and docs</text>
</g>
<!-- root&#45;&gt;ecoPackaging -->
<g id="edge15" class="edge">
<title>root&#45;&gt;ecoPackaging</title>
<path fill="none" stroke="#666666" d="M284.11,-399.48C298.96,-393.17 313.16,-385.16 325.27,-375 384.02,-325.73 411.48,-233.22 420.86,-194.15"/>
</g>
<!-- ecoLookups -->
<g id="node22" class="node">
<title>ecoLookups</title>
<polygon fill="none" stroke="#666666" stroke-dasharray="5,2" points="455.77,-82 395.77,-82 395.77,-46 455.77,-46 455.77,-82"/>
<text text-anchor="middle" x="425.77" y="-61.2" font-family="Times,serif" font-size="11.00">lookups</text>
</g>
<!-- root&#45;&gt;ecoLookups -->
<g id="edge21" class="edge">
<title>root&#45;&gt;ecoLookups</title>
<path fill="none" stroke="#666666" d="M290.35,-401.08C303.5,-394.48 315.57,-385.96 325.27,-375 391.24,-300.39 324.74,-246.25 362.27,-154 373.38,-126.69 393.95,-99.46 408.45,-82.22"/>
</g>
<!-- legend -->
<g id="node24" class="node">
<title>legend</title>
<polygon fill="none" stroke="black" points="43.63,-347 43.63,-366 142.63,-366 142.63,-347 43.63,-347"/>
<text text-anchor="start" x="72.63" y="-355" font-family="Times,serif" font-weight="bold" font-size="10.00">lives in</text>
<polygon fill="none" stroke="black" points="142.63,-347 142.63,-366 282.63,-366 282.63,-347 142.63,-347"/>
<text text-anchor="start" x="191.13" y="-355" font-family="Times,serif" font-weight="bold" font-size="10.00">seen by</text>
<polygon fill="lightsalmon" stroke="transparent" points="43.63,-328 43.63,-347 142.63,-347 142.63,-328 43.63,-328"/>
<polygon fill="none" stroke="black" points="43.63,-328 43.63,-347 142.63,-347 142.63,-328 43.63,-328"/>
<text text-anchor="start" x="51.13" y="-335" font-family="Times,serif" font-size="10.00">bisos&#45;pip/_skills/</text>
<polygon fill="none" stroke="black" points="142.63,-328 142.63,-347 282.63,-347 282.63,-328 142.63,-328"/>
<text text-anchor="start" x="150.63" y="-335" font-family="Times,serif" font-size="10.00">&#45;&#45;activity=bisos&#45;pip only</text>
<polygon fill="palegreen" stroke="transparent" points="43.63,-309 43.63,-328 142.63,-328 142.63,-309 43.63,-309"/>
<polygon fill="none" stroke="black" points="43.63,-309 43.63,-328 142.63,-328 142.63,-309 43.63,-309"/>
<text text-anchor="start" x="47.63" y="-316" font-family="Times,serif" font-size="10.00">sbom+cap/_skills/</text>
<polygon fill="none" stroke="black" points="142.63,-309 142.63,-328 282.63,-328 282.63,-309 142.63,-309"/>
<text text-anchor="start" x="146.63" y="-316" font-family="Times,serif" font-size="10.00">&#45;&#45;activity=sbom+cap only</text>
<polygon fill="none" stroke="black" points="43.63,-290 43.63,-309 282.63,-309 282.63,-290 43.63,-290"/>
<text text-anchor="start" x="62.13" y="-297" font-family="Times,serif" font-size="10.00" fill="purple">dotted arrow = load the target skill first</text>
</g>
<!-- root&#45;&gt;legend -->
<!-- comeega&#45;authorship -->
<g id="node3" class="node">
<title>comeega&#45;authorship</title>
<path fill="lightsalmon" stroke="black" d="M668.77,-793C668.77,-793 561.77,-793 561.77,-793 555.77,-793 549.77,-787 549.77,-781 549.77,-781 549.77,-769 549.77,-769 549.77,-763 555.77,-757 561.77,-757 561.77,-757 668.77,-757 668.77,-757 674.77,-757 680.77,-763 680.77,-769 680.77,-769 680.77,-781 680.77,-781 680.77,-787 674.77,-793 668.77,-793"/>
<text text-anchor="middle" x="615.27" y="-772.2" font-family="Times,serif" font-size="11.00">comeega&#45;authorship</text>
</g>
<!-- ecoAuthorship&#45;&gt;comeega&#45;authorship -->
<g id="edge2" class="edge">
<title>ecoAuthorship&#45;&gt;comeega&#45;authorship</title>
<path fill="none" stroke="#666666" d="M483.28,-743.56C504.2,-748.58 528.07,-754.31 549.66,-759.49"/>
</g>
<!-- dblock&#45;authoring -->
<g id="node4" class="node">
<title>dblock&#45;authoring</title>
<path fill="lightsalmon" stroke="black" d="M658.77,-748C658.77,-748 571.77,-748 571.77,-748 565.77,-748 559.77,-742 559.77,-736 559.77,-736 559.77,-724 559.77,-724 559.77,-718 565.77,-712 571.77,-712 571.77,-712 658.77,-712 658.77,-712 664.77,-712 670.77,-718 670.77,-724 670.77,-724 670.77,-736 670.77,-736 670.77,-742 664.77,-748 658.77,-748"/>
<text text-anchor="middle" x="615.27" y="-727.2" font-family="Times,serif" font-size="11.00">dblock&#45;authoring</text>
</g>
<!-- ecoAuthorship&#45;&gt;dblock&#45;authoring -->
<g id="edge3" class="edge">
<title>ecoAuthorship&#45;&gt;dblock&#45;authoring</title>
<path fill="none" stroke="#666666" d="M483.28,-730C507.43,-730 535.52,-730 559.48,-730"/>
</g>
<!-- writing&#45;cs&#45;commands -->
<g id="node6" class="node">
<title>writing&#45;cs&#45;commands</title>
<path fill="lightsalmon" stroke="black" d="M671.77,-703C671.77,-703 558.77,-703 558.77,-703 552.77,-703 546.77,-697 546.77,-691 546.77,-691 546.77,-679 546.77,-679 546.77,-673 552.77,-667 558.77,-667 558.77,-667 671.77,-667 671.77,-667 677.77,-667 683.77,-673 683.77,-679 683.77,-679 683.77,-691 683.77,-691 683.77,-697 677.77,-703 671.77,-703"/>
<text text-anchor="middle" x="615.27" y="-682.2" font-family="Times,serif" font-size="11.00">writing&#45;cs&#45;commands</text>
</g>
<!-- ecoPycs&#45;&gt;writing&#45;cs&#45;commands -->
<g id="edge5" class="edge">
<title>ecoPycs&#45;&gt;writing&#45;cs&#45;commands</title>
<path fill="none" stroke="#666666" d="M481,-646.62C503.07,-652.97 528.7,-660.36 551.57,-666.94"/>
</g>
<!-- icm&#45;to&#45;pycs&#45;conversion -->
<g id="node7" class="node">
<title>icm&#45;to&#45;pycs&#45;conversion</title>
<path fill="lightsalmon" stroke="black" d="M675.77,-649C675.77,-649 554.77,-649 554.77,-649 548.77,-649 542.77,-643 542.77,-637 542.77,-637 542.77,-625 542.77,-625 542.77,-619 548.77,-613 554.77,-613 554.77,-613 675.77,-613 675.77,-613 681.77,-613 687.77,-619 687.77,-625 687.77,-625 687.77,-637 687.77,-637 687.77,-643 681.77,-649 675.77,-649"/>
<text text-anchor="middle" x="615.27" y="-628.2" font-family="Times,serif" font-size="11.00">icm&#45;to&#45;pycs&#45;conversion</text>
</g>
<!-- ecoPycs&#45;&gt;icm&#45;to&#45;pycs&#45;conversion -->
<g id="edge6" class="edge">
<title>ecoPycs&#45;&gt;icm&#45;to&#45;pycs&#45;conversion</title>
<path fill="none" stroke="#666666" d="M481,-631C500.25,-631 522.23,-631 542.7,-631"/>
</g>
<!-- icm&#45;to&#45;pycs&#45;conversion&#45;&gt;writing&#45;cs&#45;commands -->
<g id="edge27" class="edge">
<title>icm&#45;to&#45;pycs&#45;conversion&#45;&gt;writing&#45;cs&#45;commands</title>
<path fill="none" stroke="purple" stroke-width="1.4" stroke-dasharray="1,5" d="M615.27,-649.14C615.27,-651.62 615.27,-654.1 615.27,-656.59"/>
<polygon fill="purple" stroke="purple" stroke-width="1.4" points="611.77,-656.79 615.27,-666.79 618.77,-656.79 611.77,-656.79"/>
</g>
<!-- seeded&#45;cs&#45;commands -->
<g id="node9" class="node">
<title>seeded&#45;cs&#45;commands</title>
<path fill="lightsalmon" stroke="black" d="M671.27,-604C671.27,-604 559.27,-604 559.27,-604 553.27,-604 547.27,-598 547.27,-592 547.27,-592 547.27,-580 547.27,-580 547.27,-574 553.27,-568 559.27,-568 559.27,-568 671.27,-568 671.27,-568 677.27,-568 683.27,-574 683.27,-580 683.27,-580 683.27,-592 683.27,-592 683.27,-598 677.27,-604 671.27,-604"/>
<text text-anchor="middle" x="615.27" y="-583.2" font-family="Times,serif" font-size="11.00">seeded&#45;cs&#45;commands</text>
</g>
<!-- ecoSeeded&#45;&gt;seeded&#45;cs&#45;commands -->
<g id="edge8" class="edge">
<title>ecoSeeded&#45;&gt;seeded&#45;cs&#45;commands</title>
<path fill="none" stroke="#666666" d="M435.84,-441.05C450.9,-469.27 483.66,-523.81 526.27,-555 533.07,-559.97 540.73,-564.21 548.64,-567.79"/>
</g>
<!-- spread&#45;seeded&#45;cs&#45;commands -->
<g id="node10" class="node">
<title>spread&#45;seeded&#45;cs&#45;commands</title>
<path fill="lightsalmon" stroke="black" d="M692.27,-550C692.27,-550 538.27,-550 538.27,-550 532.27,-550 526.27,-544 526.27,-538 526.27,-538 526.27,-526 526.27,-526 526.27,-520 532.27,-514 538.27,-514 538.27,-514 692.27,-514 692.27,-514 698.27,-514 704.27,-520 704.27,-526 704.27,-526 704.27,-538 704.27,-538 704.27,-544 698.27,-550 692.27,-550"/>
<text text-anchor="middle" x="615.27" y="-529.2" font-family="Times,serif" font-size="11.00">spread&#45;seeded&#45;cs&#45;commands</text>
</g>
<!-- ecoSeeded&#45;&gt;spread&#45;seeded&#45;cs&#45;commands -->
<g id="edge9" class="edge">
<title>ecoSeeded&#45;&gt;spread&#45;seeded&#45;cs&#45;commands</title>
<path fill="none" stroke="#666666" d="M445.98,-441.21C465.09,-458.52 495.86,-484.32 526.27,-501 535.07,-505.83 544.78,-510.14 554.42,-513.9"/>
</g>
<!-- walkable&#45;tree&#45;planting -->
<g id="node11" class="node">
<title>walkable&#45;tree&#45;planting</title>
<path fill="lightsalmon" stroke="black" d="M675.27,-496C675.27,-496 555.27,-496 555.27,-496 549.27,-496 543.27,-490 543.27,-484 543.27,-484 543.27,-472 543.27,-472 543.27,-466 549.27,-460 555.27,-460 555.27,-460 675.27,-460 675.27,-460 681.27,-460 687.27,-466 687.27,-472 687.27,-472 687.27,-484 687.27,-484 687.27,-490 681.27,-496 675.27,-496"/>
<text text-anchor="middle" x="615.27" y="-475.2" font-family="Times,serif" font-size="11.00">walkable&#45;tree&#45;planting</text>
</g>
<!-- ecoSeeded&#45;&gt;walkable&#45;tree&#45;planting -->
<g id="edge10" class="edge">
<title>ecoSeeded&#45;&gt;walkable&#45;tree&#45;planting</title>
<path fill="none" stroke="#666666" d="M463.81,-433.87C489.11,-441.29 523.22,-451.29 552.57,-459.9"/>
</g>
<!-- cbm&#45;authorship -->
<g id="node12" class="node">
<title>cbm&#45;authorship</title>
<path fill="lightsalmon" stroke="black" d="M655.27,-441C655.27,-441 575.27,-441 575.27,-441 569.27,-441 563.27,-435 563.27,-429 563.27,-429 563.27,-417 563.27,-417 563.27,-411 569.27,-405 575.27,-405 575.27,-405 655.27,-405 655.27,-405 661.27,-405 667.27,-411 667.27,-417 667.27,-417 667.27,-429 667.27,-429 667.27,-435 661.27,-441 655.27,-441"/>
<text text-anchor="middle" x="615.27" y="-420.2" font-family="Times,serif" font-size="11.00">cbm&#45;authorship</text>
</g>
<!-- ecoSeeded&#45;&gt;cbm&#45;authorship -->
<g id="edge11" class="edge">
<title>ecoSeeded&#45;&gt;cbm&#45;authorship</title>
<path fill="none" stroke="#666666" d="M463.81,-423C492.2,-423 531.7,-423 563.11,-423"/>
</g>
<!-- sysd&#45;pcs&#45;authorship -->
<g id="node13" class="node">
<title>sysd&#45;pcs&#45;authorship</title>
<path fill="lightsalmon" stroke="black" d="M667.27,-396C667.27,-396 563.27,-396 563.27,-396 557.27,-396 551.27,-390 551.27,-384 551.27,-384 551.27,-372 551.27,-372 551.27,-366 557.27,-360 563.27,-360 563.27,-360 667.27,-360 667.27,-360 673.27,-360 679.27,-366 679.27,-372 679.27,-372 679.27,-384 679.27,-384 679.27,-390 673.27,-396 667.27,-396"/>
<text text-anchor="middle" x="615.27" y="-375.2" font-family="Times,serif" font-size="11.00">sysd&#45;pcs&#45;authorship</text>
</g>
<!-- ecoSeeded&#45;&gt;sysd&#45;pcs&#45;authorship -->
<g id="edge12" class="edge">
<title>ecoSeeded&#45;&gt;sysd&#45;pcs&#45;authorship</title>
<path fill="none" stroke="#666666" d="M463.81,-414.11C488.68,-408.14 522.07,-400.13 551.08,-393.16"/>
</g>
<!-- configfile&#45;pattern -->
<g id="node14" class="node">
<title>configfile&#45;pattern</title>
<path fill="lightsalmon" stroke="black" d="M659.77,-351C659.77,-351 570.77,-351 570.77,-351 564.77,-351 558.77,-345 558.77,-339 558.77,-339 558.77,-327 558.77,-327 558.77,-321 564.77,-315 570.77,-315 570.77,-315 659.77,-315 659.77,-315 665.77,-315 671.77,-321 671.77,-327 671.77,-327 671.77,-339 671.77,-339 671.77,-345 665.77,-351 659.77,-351"/>
<text text-anchor="middle" x="615.27" y="-330.2" font-family="Times,serif" font-size="11.00">configfile&#45;pattern</text>
</g>
<!-- ecoSeeded&#45;&gt;configfile&#45;pattern -->
<g id="edge13" class="edge">
<title>ecoSeeded&#45;&gt;configfile&#45;pattern</title>
<path fill="none" stroke="#666666" d="M448.79,-404.96C468.14,-389.93 497.61,-368.94 526.27,-356 536.34,-351.45 547.49,-347.67 558.36,-344.58"/>
</g>
<!-- sbom&#45;authoring -->
<g id="node15" class="node">
<title>sbom&#45;authoring</title>
<path fill="palegreen" stroke="black" d="M655.27,-306C655.27,-306 575.27,-306 575.27,-306 569.27,-306 563.27,-300 563.27,-294 563.27,-294 563.27,-282 563.27,-282 563.27,-276 569.27,-270 575.27,-270 575.27,-270 655.27,-270 655.27,-270 661.27,-270 667.27,-276 667.27,-282 667.27,-282 667.27,-294 667.27,-294 667.27,-300 661.27,-306 655.27,-306"/>
<text text-anchor="middle" x="615.27" y="-285.2" font-family="Times,serif" font-size="11.00">sbom&#45;authoring</text>
</g>
<!-- ecoSeeded&#45;&gt;sbom&#45;authoring -->
<g id="edge14" class="edge">
<title>ecoSeeded&#45;&gt;sbom&#45;authoring</title>
<path fill="none" stroke="#666666" d="M437.86,-404.88C454.11,-379.89 486.8,-335.2 526.27,-311 537.31,-304.23 550.3,-299.44 562.87,-296.05"/>
</g>
<!-- spread&#45;seeded&#45;cs&#45;commands&#45;&gt;seeded&#45;cs&#45;commands -->
<g id="edge23" class="edge">
<title>spread&#45;seeded&#45;cs&#45;commands&#45;&gt;seeded&#45;cs&#45;commands</title>
<path fill="none" stroke="purple" stroke-width="1.4" stroke-dasharray="1,5" d="M615.27,-550.14C615.27,-552.62 615.27,-555.1 615.27,-557.59"/>
<polygon fill="purple" stroke="purple" stroke-width="1.4" points="611.77,-557.79 615.27,-567.79 618.77,-557.79 611.77,-557.79"/>
</g>
<!-- walkable&#45;tree&#45;planting&#45;&gt;seeded&#45;cs&#45;commands -->
<g id="edge24" class="edge">
<title>walkable&#45;tree&#45;planting&#45;&gt;seeded&#45;cs&#45;commands</title>
<path fill="none" stroke="purple" stroke-width="1.4" stroke-dasharray="1,5" d="M543.23,-488.81C529.34,-494.27 516.44,-502.4 507.77,-514.5 498.45,-527.51 498.4,-537.53 507.77,-550.5 515.26,-560.87 525.9,-568.26 537.59,-573.52"/>
<polygon fill="purple" stroke="purple" stroke-width="1.4" points="536.57,-576.88 547.16,-577.29 539.14,-570.37 536.57,-576.88"/>
</g>
<!-- walkable&#45;tree&#45;planting&#45;&gt;spread&#45;seeded&#45;cs&#45;commands -->
<g id="edge25" class="edge">
<title>walkable&#45;tree&#45;planting&#45;&gt;spread&#45;seeded&#45;cs&#45;commands</title>
<path fill="none" stroke="purple" stroke-width="1.4" stroke-dasharray="1,5" d="M615.27,-496.14C615.27,-498.62 615.27,-501.1 615.27,-503.59"/>
<polygon fill="purple" stroke="purple" stroke-width="1.4" points="611.77,-503.79 615.27,-513.79 618.77,-503.79 611.77,-503.79"/>
</g>
<!-- cbm&#45;authorship&#45;&gt;spread&#45;seeded&#45;cs&#45;commands -->
<g id="edge26" class="edge">
<title>cbm&#45;authorship&#45;&gt;spread&#45;seeded&#45;cs&#45;commands</title>
<path fill="none" stroke="purple" stroke-width="1.4" stroke-dasharray="1,5" d="M563.1,-428.25C542.37,-433.19 520.47,-442.61 507.77,-460.5 498.5,-473.54 498.4,-483.53 507.77,-496.5 510.89,-500.82 514.56,-504.62 518.62,-507.97"/>
<polygon fill="purple" stroke="purple" stroke-width="1.4" points="516.7,-510.9 526.88,-513.86 520.77,-505.2 516.7,-510.9"/>
</g>
<!-- cbm&#45;authorship&#45;&gt;walkable&#45;tree&#45;planting -->
<g id="edge28" class="edge">
<title>cbm&#45;authorship&#45;&gt;walkable&#45;tree&#45;planting</title>
<path fill="none" stroke="#cd96cd" stroke-width="1.4" stroke-dasharray="1,5" d="M615.27,-441.01C615.27,-443.73 615.27,-446.6 615.27,-449.48"/>
<polygon fill="#cd96cd" stroke="#cd96cd" stroke-width="1.4" points="611.77,-449.76 615.27,-459.76 618.77,-449.76 611.77,-449.76"/>
<text text-anchor="middle" x="607.27" y="-448.3" font-family="Times,serif" font-size="9.00" fill="purple"> if walked </text>
</g>
<!-- bisos&#45;pip&#45;setup&#45;py -->
<g id="node17" class="node">
<title>bisos&#45;pip&#45;setup&#45;py</title>
<path fill="lightsalmon" stroke="black" d="M662.27,-261C662.27,-261 568.27,-261 568.27,-261 562.27,-261 556.27,-255 556.27,-249 556.27,-249 556.27,-237 556.27,-237 556.27,-231 562.27,-225 568.27,-225 568.27,-225 662.27,-225 662.27,-225 668.27,-225 674.27,-231 674.27,-237 674.27,-237 674.27,-249 674.27,-249 674.27,-255 668.27,-261 662.27,-261"/>
<text text-anchor="middle" x="615.27" y="-240.2" font-family="Times,serif" font-size="11.00">bisos&#45;pip&#45;setup&#45;py</text>
</g>
<!-- ecoPackaging&#45;&gt;bisos&#45;pip&#45;setup&#45;py -->
<g id="edge16" class="edge">
<title>ecoPackaging&#45;&gt;bisos&#45;pip&#45;setup&#45;py</title>
<path fill="none" stroke="#666666" d="M462.52,-194.05C481.19,-203 504.6,-213.46 526.27,-221 535.79,-224.31 546.05,-227.34 556.08,-230.03"/>
</g>
<!-- bisos&#45;pip&#45;release -->
<g id="node18" class="node">
<title>bisos&#45;pip&#45;release</title>
<path fill="lightsalmon" stroke="black" d="M659.77,-216C659.77,-216 570.77,-216 570.77,-216 564.77,-216 558.77,-210 558.77,-204 558.77,-204 558.77,-192 558.77,-192 558.77,-186 564.77,-180 570.77,-180 570.77,-180 659.77,-180 659.77,-180 665.77,-180 671.77,-186 671.77,-192 671.77,-192 671.77,-204 671.77,-204 671.77,-210 665.77,-216 659.77,-216"/>
<text text-anchor="middle" x="615.27" y="-195.2" font-family="Times,serif" font-size="11.00">bisos&#45;pip&#45;release</text>
</g>
<!-- ecoPackaging&#45;&gt;bisos&#45;pip&#45;release -->
<g id="edge17" class="edge">
<title>ecoPackaging&#45;&gt;bisos&#45;pip&#45;release</title>
<path fill="none" stroke="#666666" d="M489.46,-183.36C511.82,-185.98 536.83,-188.91 558.56,-191.46"/>
</g>
<!-- readme&#45;authorship -->
<g id="node19" class="node">
<title>readme&#45;authorship</title>
<path fill="lightsalmon" stroke="black" d="M664.77,-171C664.77,-171 565.77,-171 565.77,-171 559.77,-171 553.77,-165 553.77,-159 553.77,-159 553.77,-147 553.77,-147 553.77,-141 559.77,-135 565.77,-135 565.77,-135 664.77,-135 664.77,-135 670.77,-135 676.77,-141 676.77,-147 676.77,-147 676.77,-159 676.77,-159 676.77,-165 670.77,-171 664.77,-171"/>
<text text-anchor="middle" x="615.27" y="-150.2" font-family="Times,serif" font-size="11.00">readme&#45;authorship</text>
</g>
<!-- ecoPackaging&#45;&gt;readme&#45;authorship -->
<g id="edge18" class="edge">
<title>ecoPackaging&#45;&gt;readme&#45;authorship</title>
<path fill="none" stroke="#666666" d="M489.46,-168.31C510.12,-165.78 533.04,-162.96 553.54,-160.45"/>
</g>
<!-- blee&#45;panel&#45;authorship -->
<g id="node20" class="node">
<title>blee&#45;panel&#45;authorship</title>
<path fill="lightsalmon" stroke="black" d="M672.77,-126C672.77,-126 557.77,-126 557.77,-126 551.77,-126 545.77,-120 545.77,-114 545.77,-114 545.77,-102 545.77,-102 545.77,-96 551.77,-90 557.77,-90 557.77,-90 672.77,-90 672.77,-90 678.77,-90 684.77,-96 684.77,-102 684.77,-102 684.77,-114 684.77,-114 684.77,-120 678.77,-126 672.77,-126"/>
<text text-anchor="middle" x="615.27" y="-105.2" font-family="Times,serif" font-size="11.00">blee&#45;panel&#45;authorship</text>
</g>
<!-- ecoPackaging&#45;&gt;blee&#45;panel&#45;authorship -->
<g id="edge19" class="edge">
<title>ecoPackaging&#45;&gt;blee&#45;panel&#45;authorship</title>
<path fill="none" stroke="#666666" d="M463.02,-157.82C481.62,-148.95 504.82,-138.59 526.27,-131 532.52,-128.79 539.09,-126.68 545.7,-124.71"/>
</g>
<!-- graphviz&#45;authoring -->
<g id="node21" class="node">
<title>graphviz&#45;authoring</title>
<path fill="lightsalmon" stroke="black" d="M664.27,-81C664.27,-81 566.27,-81 566.27,-81 560.27,-81 554.27,-75 554.27,-69 554.27,-69 554.27,-57 554.27,-57 554.27,-51 560.27,-45 566.27,-45 566.27,-45 664.27,-45 664.27,-45 670.27,-45 676.27,-51 676.27,-57 676.27,-57 676.27,-69 676.27,-69 676.27,-75 670.27,-81 664.27,-81"/>
<text text-anchor="middle" x="615.27" y="-60.2" font-family="Times,serif" font-size="11.00">graphviz&#45;authoring</text>
</g>
<!-- ecoPackaging&#45;&gt;graphviz&#45;authoring -->
<g id="edge20" class="edge">
<title>ecoPackaging&#45;&gt;graphviz&#45;authoring</title>
<path fill="none" stroke="#666666" d="M442.08,-157.64C460.13,-137.16 492.05,-104.49 526.27,-86 534.88,-81.35 544.48,-77.6 554.09,-74.59"/>
</g>
<!-- banna&#45;lookup -->
<g id="node23" class="node">
<title>banna&#45;lookup</title>
<path fill="lightsalmon" stroke="black" d="M649.27,-36C649.27,-36 581.27,-36 581.27,-36 575.27,-36 569.27,-30 569.27,-24 569.27,-24 569.27,-12 569.27,-12 569.27,-6 575.27,0 581.27,0 581.27,0 649.27,0 649.27,0 655.27,0 661.27,-6 661.27,-12 661.27,-12 661.27,-24 661.27,-24 661.27,-30 655.27,-36 649.27,-36"/>
<text text-anchor="middle" x="615.27" y="-15.2" font-family="Times,serif" font-size="11.00">banna&#45;lookup</text>
</g>
<!-- ecoLookups&#45;&gt;banna&#45;lookup -->
<g id="edge22" class="edge">
<title>ecoLookups&#45;&gt;banna&#45;lookup</title>
<path fill="none" stroke="#666666" d="M456.07,-56.81C486.35,-49.38 534.02,-37.69 569.12,-29.08"/>
</g>
</g>
</svg>
